<svg xmlns="http://www.w3.org/2000/svg" viewBox="0 0 128 128" role="img" aria-label="Liminull mark">
  <rect width="128" height="128" fill="#070707"/>
  <g fill="none" stroke="#f6fffb" stroke-width="7.5" stroke-linecap="round" stroke-linejoin="round">
    <path d="M64 19 C47 39 44 58 64 77 C84 58 81 39 64 19Z"/>
    <path d="M30 48 C44 49 55 58 64 77 C42 78 29 66 30 48Z"/>
    <path d="M98 48 C84 49 73 58 64 77 C86 78 99 66 98 48Z"/>
    <path d="M38 83 C50 96 78 96 90 83"/>
    <path d="M64 78 L64 108"/>
  </g>
  <g fill="#46f4e3">
    <circle cx="64" cy="77" r="7"/>
    <circle cx="64" cy="111" r="4"/>
  </g>
  <rect x="7" y="7" width="114" height="114" fill="none" stroke="#f6fffb" stroke-width="3" opacity=".55"/>
</svg>
